<?xml version="1.0" encoding="UTF-8" standalone="no"?>
<svg
   xmlns:dc="http://purl.org/dc/elements/1.1/"
   xmlns:cc="http://creativecommons.org/ns#"
   xmlns:rdf="http://www.w3.org/1999/02/22-rdf-syntax-ns#"
   xmlns:svg="http://www.w3.org/2000/svg"
   xmlns="http://www.w3.org/2000/svg"
   xmlns:xlink="http://www.w3.org/1999/xlink"
   xmlns:sodipodi="http://sodipodi.sourceforge.net/DTD/sodipodi-0.dtd"
   xmlns:inkscape="http://www.inkscape.org/namespaces/inkscape"
   height="55.999996"
   width="75.288925"
   version="1.0"
   viewBox="-6.900765 -8.554725 3.7523141 3.5929843"
   id="svg135"
   sodipodi:docname="techs-GIMP.svg"
   inkscape:version="1.0.2 (e86c8708, 2021-01-15)">
  <metadata
     id="metadata139">
    <rdf:RDF>
      <cc:Work
         rdf:about="">
        <dc:format>image/svg+xml</dc:format>
        <dc:type
           rdf:resource="http://purl.org/dc/dcmitype/StillImage" />
      </cc:Work>
    </rdf:RDF>
  </metadata>
  <sodipodi:namedview
     pagecolor="#ffffff"
     bordercolor="#666666"
     borderopacity="1"
     objecttolerance="10"
     gridtolerance="10"
     guidetolerance="10"
     inkscape:pageopacity="0"
     inkscape:pageshadow="2"
     inkscape:window-width="1280"
     inkscape:window-height="700"
     id="namedview137"
     showgrid="false"
     inkscape:zoom="0.6425"
     inkscape:cx="600"
     inkscape:cy="150.97276"
     inkscape:window-x="0"
     inkscape:window-y="23"
     inkscape:window-maximized="1"
     inkscape:current-layer="svg135" />
  <defs
     id="defs91">
    <linearGradient
       id="k">
      <stop
         offset="0"
         stop-color="#5b676b"
         id="stop10" />
      <stop
         offset="1"
         stop-color="#141718"
         id="stop12" />
    </linearGradient>
    <linearGradient
       id="f">
      <stop
         offset="0"
         id="stop15" />
      <stop
         offset="1"
         stop-opacity="0"
         id="stop17" />
    </linearGradient>
    <linearGradient
       id="e">
      <stop
         offset="0"
         stop-color="#fff"
         id="stop20" />
      <stop
         offset="1"
         stop-color="#fff"
         stop-opacity="0"
         id="stop22" />
    </linearGradient>
    <linearGradient
       id="a">
      <stop
         offset="0"
         stop-color="#fff"
         id="stop25" />
      <stop
         offset="1"
         stop-color="#fff"
         stop-opacity="0"
         id="stop27" />
    </linearGradient>
    <linearGradient
       gradientTransform="matrix(0.75516653,0.39514402,-0.39514402,0.75516653,-25.912483,6.5327372)"
       gradientUnits="userSpaceOnUse"
       xlink:href="#a"
       id="x"
       y2="42.282101"
       x2="7.7521"
       y1="37.752201"
       x1="13.2362" />
    <linearGradient
       id="h">
      <stop
         offset="0"
         stop-color="#696969"
         id="stop31" />
      <stop
         offset="1"
         id="stop33" />
    </linearGradient>
    <linearGradient
       id="b">
      <stop
         offset="0"
         stop-color="#bdbdbd"
         id="stop36" />
      <stop
         offset=".3333"
         stop-color="#e2e2e2"
         id="stop38" />
      <stop
         offset=".6667"
         stop-color="#a3a3a3"
         id="stop40" />
      <stop
         offset="1"
         stop-color="#ddd"
         id="stop42" />
    </linearGradient>
    <linearGradient
       gradientTransform="translate(-46.407,-1.8029)"
       gradientUnits="userSpaceOnUse"
       xlink:href="#b"
       id="v"
       y2="33.438801"
       x2="23.109301"
       y1="30.001301"
       x1="19.394699" />
    <linearGradient
       id="c">
      <stop
         offset="0"
         stop-color="#6e3d09"
         id="stop46" />
      <stop
         offset=".2424"
         stop-color="#ea8113"
         id="stop48" />
      <stop
         offset=".6212"
         stop-color="#5c3307"
         id="stop50" />
      <stop
         offset="1"
         stop-color="#e07c12"
         id="stop52" />
    </linearGradient>
    <linearGradient
       gradientTransform="translate(-49.305,1.8777)"
       gradientUnits="userSpaceOnUse"
       xlink:href="#c"
       id="u"
       y2="11.1825"
       x2="27.753901"
       y1="19.239901"
       x1="37.017601" />
    <linearGradient
       id="l">
      <stop
         offset="0"
         stop-color="#857c63"
         id="stop56" />
      <stop
         offset="1"
         stop-color="#221f19"
         id="stop58" />
    </linearGradient>
    <linearGradient
       id="j">
      <stop
         offset="0"
         id="stop61" />
      <stop
         offset="1"
         stop-opacity="0"
         id="stop63" />
    </linearGradient>
    <linearGradient
       id="g">
      <stop
         offset="0"
         id="stop66" />
      <stop
         offset="1"
         stop-opacity="0"
         id="stop68" />
    </linearGradient>
    <linearGradient
       id="i">
      <stop
         offset="0"
         stop-color="#fff"
         id="stop71" />
      <stop
         offset="1"
         stop-color="#b9b9b0"
         id="stop73" />
    </linearGradient>
    <linearGradient
       id="d">
      <stop
         offset="0"
         stop-color="#fff"
         id="stop76" />
      <stop
         offset="1"
         stop-color="#fff"
         stop-opacity="0"
         id="stop78" />
    </linearGradient>
    <linearGradient
       gradientUnits="userSpaceOnUse"
       xlink:href="#d"
       id="s"
       y2="31.57"
       x2="5.9846001"
       y1="23.3624"
       x1="6.3052001" />
    <linearGradient
       gradientUnits="userSpaceOnUse"
       xlink:href="#e"
       id="p"
       y2="46.985699"
       x2="39.524502"
       y1="19.110701"
       x1="14.9688" />
    <linearGradient
       gradientUnits="userSpaceOnUse"
       xlink:href="#f"
       id="y"
       y2="30.985201"
       x2="24.328899"
       y1="30.543301"
       x1="26.163" />
    <linearGradient
       gradientTransform="translate(-3.8365,0.346)"
       gradientUnits="userSpaceOnUse"
       xlink:href="#g"
       id="o"
       y2="30.2931"
       x2="21.2132"
       y1="28.083401"
       x1="32.350101" />
    <radialGradient
       gradientTransform="matrix(1.5727,0,0,1.53264,-55.3668,-21.3582)"
       gradientUnits="userSpaceOnUse"
       xlink:href="#h"
       id="w"
       fy="35.356499"
       fx="15.4151"
       r="7.5791998"
       cy="35.356499"
       cx="15.4151" />
    <radialGradient
       gradientTransform="matrix(1.31849,0,0,1.31849,-22.1264,-6.2417)"
       gradientUnits="userSpaceOnUse"
       xlink:href="#i"
       id="t"
       fy="19.5979"
       fx="69.473198"
       r="3.5153"
       cy="19.5979"
       cx="69.473198" />
    <radialGradient
       gradientTransform="matrix(1,0,0,0.28425,0,24.2909)"
       gradientUnits="userSpaceOnUse"
       xlink:href="#j"
       id="m"
       fy="33.9375"
       fx="23"
       r="18.25"
       cy="33.9375"
       cx="23" />
    <radialGradient
       gradientTransform="matrix(0.91616,0.09319,-0.10877,1.0693,3.2537,-3.0293)"
       gradientUnits="userSpaceOnUse"
       xlink:href="#k"
       id="r"
       fy="25.271"
       fx="6.0242"
       r="4.8309999"
       cy="25.271"
       cx="6.0242" />
    <radialGradient
       gradientTransform="matrix(1.77275,0,0,1.29668,-16.3404,-6.616)"
       gradientUnits="userSpaceOnUse"
       xlink:href="#l"
       id="n"
       fy="22.299999"
       fx="18.5576"
       r="19.2292"
       cy="22.299999"
       cx="18.5576" />
    <radialGradient
       gradientTransform="matrix(1.31849,0,0,1.31849,-22.1264,-6.2417)"
       gradientUnits="userSpaceOnUse"
       xlink:href="#i"
       id="q"
       fy="19.5979"
       fx="69.473198"
       r="3.5153"
       cy="19.5979"
       cx="69.473198" />
  </defs>
  <g
     color="#000000"
     id="g133"
     transform="matrix(0.1050001,0,0,0.1050001,-7.4398918,-8.5547242)">
    <path
       style="fill:url(#m);marker:none"
       transform="matrix(1,0,0,1.53012,-0.467,-28.2262)"
       d="m 41.25,33.9375 a 18.25,5.1875 0 1 1 -36.5,0 18.25,5.1875 0 1 1 36.5,0 z"
       overflow="visible"
       fill="url(#m)"
       fill-rule="evenodd"
       id="path93" />
    <path
       style="fill:url(#n);marker:none"
       d="m 10.3744,12.4679 c 0,0 2.8745,5.9276 9.5992,5.7604 14.0925,-0.3536 16.5637,-7.705 16.9173,-8.7656 0.3535,-1.0607 0.8945,-0.9 1.0196,0.0802 4.5962,41.7193 -31.897,23.8192 -33.193,16.7136 7.2479,-2.1214 5.48,-6.1872 5.48,-6.1872 z"
       overflow="visible"
       fill="url(#n)"
       fill-rule="evenodd"
       stroke="#2e3436"
       stroke-miterlimit="10"
       transform="translate(-0.592,-8.2352)"
       id="path95" />
    <path
       style="fill:url(#o);marker:none"
       d="m 15.7378,30.066 c 6.7389,1.3479 10.1707,0.0981 12.1792,-1.4527 -0.5304,-0.685 -1.4363,-1.4363 -1.4363,-1.4363 0,0 2.3533,0.6539 3.182,1.7235 0.8262,1.0666 0.3067,1.7237 0.0905,3.0884 -0.4814,-1.1986 -1.38,-1.648 -1.5016,-2.1243 -1.8063,2.4969 -6.3065,2.3932 -12.5138,0.2014 z"
       overflow="visible"
       fill="url(#o)"
       fill-rule="evenodd"
       transform="translate(-0.592,-8.2352)"
       id="path97" />
    <path
       style="stroke:url(#p);marker:none"
       d="m 36.9688,11.8438 c -0.562,0.9268 -1.4065,2.0331 -2.6876,3.0937 -2.6319,2.179 -7.0505,4.1623 -14.2812,4.3438 -4.2244,0.105 -6.9527,-1.9342 -8.625,-3.75 L 11.25,20 c 0.1361,0.4188 0.4155,1.3905 -0.0625,2.7188 -0.5143,1.4292 -2.1545,2.8913 -4.9688,4 0.2504,0.522 0.4955,1.0436 1.25,1.7812 1.028,1.005 2.457,2.088 4.1563,3.0625 3.3984,1.9489 7.8016,3.4932 11.9063,3.5625 4.1046,0.0693 7.857,-1.2346 10.4374,-5 2.3788,-3.4712 3.6825,-9.348 3,-18.2813 z"
       overflow="visible"
       opacity="0.1854"
       fill="none"
       stroke="url(#p)"
       stroke-miterlimit="10"
       transform="translate(-0.592,-8.2352)"
       id="path99" />
    <path
       style="fill:url(#q);marker:none"
       transform="matrix(1.27778,0,0,1.27778,-75.7185,-14.743)"
       d="m 72.6552,21.837 a 3.182,3.182 0 1 1 -6.364,0 3.182,3.182 0 1 1 6.364,0 z"
       overflow="visible"
       fill="url(#q)"
       fill-rule="evenodd"
       stroke="#888a85"
       stroke-width="0.7826"
       stroke-miterlimit="10"
       id="path101" />
    <path
       style="fill:url(#r);marker:none"
       transform="rotate(-35.808,-9.6784,23.1433)"
       d="m 10.4298,27.2287 a 4.331,6.0988 0 1 1 -8.662,0 4.331,6.0988 0 1 1 8.662,0 z"
       overflow="visible"
       fill="url(#r)"
       fill-rule="evenodd"
       stroke="#000000"
       stroke-miterlimit="10"
       id="path103" />
    <path
       style="marker:none"
       d="m 15.9612,13.7623 a 1.9576,1.9576 0 1 1 -3.9152,0 1.9576,1.9576 0 1 1 3.9152,0 z"
       overflow="visible"
       fill="#2e3436"
       fill-rule="evenodd"
       stroke="#000000"
       stroke-miterlimit="10"
       id="path105" />
    <path
       style="stroke:url(#s);marker:none"
       transform="rotate(-36.833,-9.2957,23.3715)"
       d="m 6.0938,22.1563 c -0.7983,0 -1.5532,0.4461 -2.1875,1.3437 -0.6344,0.8976 -1.0938,2.2342 -1.0938,3.7188 0,1.4845 0.4594,2.8211 1.0938,3.7187 0.6343,0.8976 1.3892,1.3438 2.1875,1.3438 0.7982,0 1.5772,-0.4764 2.2187,-1.375 0.6415,-0.8987 1.0938,-2.2062 1.0938,-3.6876 0,-1.4813 -0.4523,-2.7888 -1.0938,-3.6874 C 7.671,22.6326 6.892,22.1563 6.0937,22.1563 Z"
       overflow="visible"
       opacity="0.2809"
       fill="none"
       stroke="url(#s)"
       stroke-miterlimit="10"
       id="path107" />
    <path
       style="marker:none"
       d="m 5.2417,15.016 a 1.7678,2.1213 0 1 1 -3.5355,0 1.7678,2.1213 0 1 1 3.5355,0 z m 9.3643,-2.1573 a 1.3553,1.3553 0 1 1 -2.7106,0 1.3553,1.3553 0 1 1 2.7105,0 z"
       overflow="visible"
       fill="#ffffff"
       fill-rule="evenodd"
       id="path109" />
    <path
       style="fill:url(#t);marker:none"
       transform="matrix(1.5,0,0,1.5,-82.7601,-19.1537)"
       d="m 72.6552,21.837 a 3.182,3.182 0 1 1 -6.364,0 3.182,3.182 0 1 1 6.364,0 z"
       overflow="visible"
       fill="url(#t)"
       fill-rule="evenodd"
       stroke="#888a85"
       stroke-width="0.6667"
       stroke-miterlimit="10"
       id="path111" />
    <path
       style="marker:none"
       d="m 24.864,14.309 a 2.29815,2.29815 0 1 1 -4.5963,0 2.2981,2.2981 0 1 1 4.5962,0 z"
       overflow="visible"
       fill="#2e3436"
       fill-rule="evenodd"
       stroke="#000000"
       stroke-miterlimit="10"
       id="path113" />
    <path
       style="marker:none"
       d="m 23.273,13.2483 a 1.591,1.591 0 1 1 -3.182,0 1.591,1.591 0 1 1 3.182,0 z"
       overflow="visible"
       fill="#ffffff"
       fill-rule="evenodd"
       id="path115" />
    <path
       style="fill:url(#u);marker:none"
       d="m -23.3642,23.5683 3.71,3.4692 C -11.3071,20.6567 -2.56,6.9381 -2.56,6.9381 -0.5837,4.6957 -2.677,3.1877 -4.725,4.5402 c 0,0 -12.9703,10.1149 -18.6392,19.0281 z"
       overflow="visible"
       fill="url(#u)"
       stroke="#673907"
       stroke-width="2.4604"
       stroke-linecap="round"
       transform="matrix(-0.11485411,-0.38986392,0.38986392,-0.11485411,24.123351,21.454248)"
       id="path117" />
    <path
       style="fill:url(#v);marker:none"
       d="m -30.4497,32.8139 2.2463,1.9338 8.4928,-7.367 0.275,-0.7058 1.0944,-0.0179 c -0.4375,-1.5625 -2.9415,-4.3834 -4.8165,-4.3834 l 0.082,1.09 -0.67,0.38 z"
       overflow="visible"
       fill="url(#v)"
       stroke="#888a85"
       stroke-width="2.4604"
       stroke-linecap="round"
       transform="matrix(-0.11485411,-0.38986392,0.38986392,-0.11485411,24.123351,21.454248)"
       id="path119" />
    <path
       style="marker:none"
       d="m 37.9199,27.4744 2.5545,1.0969"
       overflow="visible"
       fill="none"
       stroke="#ffffff"
       stroke-linecap="round"
       stroke-linejoin="round"
       id="path121" />
    <path
       style="fill:url(#w);marker:none"
       d="m -45.3412,42.7698 c 10.444,0 18.37,1.2438 19.8706,-6.3547 1.2092,-6.1233 -7.2105,-9.0574 -11.3829,-3.5909 -4.0193,5.266 -8.4877,9.9456 -8.4877,9.9456 z"
       overflow="visible"
       fill="url(#w)"
       transform="matrix(-0.11485411,-0.38986392,0.38986392,-0.11485411,24.123351,21.454248)"
       id="path123" />
    <path
       style="marker:none"
       d="m 41.4333,27.5318 a 1.0516058,1.0516058 0 1 1 0.5943,2.0175 1.0516058,1.0516058 0 1 1 -0.5943,-2.0175 z"
       overflow="visible"
       opacity="0.5278"
       fill="#ffffff"
       id="path125" />
    <path
       style="marker:none"
       d="m 36.848,26.0354 a 0.7096,0.7096 0 1 1 0.401,1.3613 0.7096,0.7096 0 1 1 -0.401,-1.3613 z"
       overflow="visible"
       fill="#ffffff"
       id="path127" />
    <path
       style="fill:url(#x);marker:none"
       d="m -38.5437,40.9092 c 0,0 3.7215,0.0943 6.1165,-1.412 0.8474,-0.5329 1.5158,0.65 0.4938,1.0874 -2.2074,0.9447 -6.6103,0.3246 -6.6103,0.3246 z"
       overflow="visible"
       opacity="0.4278"
       fill="url(#x)"
       transform="matrix(-0.11485411,-0.38986392,0.38986392,-0.11485411,24.123351,21.454248)"
       id="path129" />
    <path
       style="fill:url(#y);marker:none"
       d="m 23.003,31.7365 c 1.4974,0.1431 2.8497,-0.2722 3.412,-0.474 0.0982,-0.5554 0.5365,-1.6213 2.046,-1.6915 l -0.5303,-0.928 c 0,0 -1.9666,1.3479 -4.0658,1.7456 z"
       overflow="visible"
       fill="url(#y)"
       fill-rule="evenodd"
       transform="translate(-0.592,-8.2352)"
       id="path131" />
  </g>
</svg>
