<?xml version="1.0" encoding="UTF-8" standalone="no"?>
<svg
   xmlns:dc="http://purl.org/dc/elements/1.1/"
   xmlns:cc="http://creativecommons.org/ns#"
   xmlns:rdf="http://www.w3.org/1999/02/22-rdf-syntax-ns#"
   xmlns:svg="http://www.w3.org/2000/svg"
   xmlns="http://www.w3.org/2000/svg"
   xmlns:sodipodi="http://sodipodi.sourceforge.net/DTD/sodipodi-0.dtd"
   xmlns:inkscape="http://www.inkscape.org/namespaces/inkscape"
   width="74.964035"
   height="55.636818"
   viewBox="0 0 74.964035 55.636818"
   version="1.1"
   id="svg30"
   sodipodi:docname="techs-Nuxt.svg"
   inkscape:version="1.0.2 (e86c8708, 2021-01-15)">
  <metadata
     id="metadata36">
    <rdf:RDF>
      <cc:Work
         rdf:about="">
        <dc:format>image/svg+xml</dc:format>
        <dc:type
           rdf:resource="http://purl.org/dc/dcmitype/StillImage" />
        <dc:title></dc:title>
      </cc:Work>
    </rdf:RDF>
  </metadata>
  <defs
     id="defs34" />
  <sodipodi:namedview
     pagecolor="#1f1f16"
     bordercolor="#666666"
     borderopacity="1"
     objecttolerance="10"
     gridtolerance="10"
     guidetolerance="10"
     inkscape:pageopacity="0.62352941"
     inkscape:pageshadow="2"
     inkscape:window-width="1280"
     inkscape:window-height="700"
     id="namedview32"
     showgrid="false"
     showborder="false"
     inkscape:zoom="1"
     inkscape:cx="267.4185"
     inkscape:cy="11.651517"
     inkscape:window-x="0"
     inkscape:window-y="23"
     inkscape:window-maximized="1"
     inkscape:current-layer="g26" />
  <g
     fill="none"
     fill-rule="evenodd"
     id="g28"
     transform="matrix(1.7321011,0,0,1.7321011,0,-0.18533482)">
    <g
       fill-rule="nonzero"
       id="g26">
      <g
         id="g16"
         transform="matrix(1.0065277,0,0,1.0065277,0,-6.9846409e-4)">
        <path
           fill="#00c58e"
           d="M 24.708,8.897 23.224,11.467 18.149,2.677 2.57,29.658 h 10.55 c 0,1.42 1.15,2.57 2.569,2.57 H 2.57 c -0.918,0 -1.766,-0.49 -2.225,-1.285 -0.46,-0.795 -0.46,-1.775 0,-2.57 L 15.925,1.392 c 0.457,-0.795 1.306,-1.285 2.225,-1.285 0.918,0 1.766,0.49 2.225,1.285 z"
           id="path10" />
        <path
           fill="#ffffff"
           d="m 35.955,28.373 -9.763,-16.906 -1.484,-2.57 -1.484,2.57 -9.761,16.906 c -0.46,0.795 -0.46,1.775 0,2.57 0.459,0.795 1.307,1.285 2.225,1.285 h 18.039 c 0.918,0 1.766,-0.49 2.225,-1.285 0.46,-0.795 0.46,-1.775 0,-2.57 z m -20.267,1.285 9.02,-15.621 9.019,15.621 h -18.04 z"
           id="path12" />
        <path
           fill="#108775"
           d="m 42.935,30.943 c -0.46,0.795 -1.307,1.285 -2.225,1.285 h -6.983 c 1.419,0 2.57,-1.15 2.57,-2.57 h 4.407 L 28.197,7.995 26.192,11.467 24.708,8.897 25.972,6.71 c 0.459,-0.795 1.307,-1.285 2.225,-1.285 0.918,0 1.766,0.49 2.226,1.285 l 12.512,21.663 c 0.459,0.795 0.459,1.775 0,2.57 z"
           id="path14" />
      </g>
    </g>
  </g>
</svg>
