<?xml version="1.0" encoding="UTF-8" standalone="no"?>
<svg
   xmlns:dc="http://purl.org/dc/elements/1.1/"
   xmlns:cc="http://creativecommons.org/ns#"
   xmlns:rdf="http://www.w3.org/1999/02/22-rdf-syntax-ns#"
   xmlns:svg="http://www.w3.org/2000/svg"
   xmlns="http://www.w3.org/2000/svg"
   xmlns:sodipodi="http://sodipodi.sourceforge.net/DTD/sodipodi-0.dtd"
   xmlns:inkscape="http://www.inkscape.org/namespaces/inkscape"
   fill="none"
   viewBox="0 0 56.716225 56"
   version="1.1"
   id="svg20"
   sodipodi:docname="techs-Strapi.svg"
   width="56.716225"
   height="56"
   inkscape:version="1.0.2 (e86c8708, 2021-01-15)">
  <metadata
     id="metadata24">
    <rdf:RDF>
      <cc:Work
         rdf:about="">
        <dc:format>image/svg+xml</dc:format>
        <dc:type
           rdf:resource="http://purl.org/dc/dcmitype/StillImage" />
      </cc:Work>
    </rdf:RDF>
  </metadata>
  <sodipodi:namedview
     pagecolor="#ffffff"
     bordercolor="#666666"
     borderopacity="1"
     objecttolerance="10"
     gridtolerance="10"
     guidetolerance="10"
     inkscape:pageopacity="0"
     inkscape:pageshadow="2"
     inkscape:window-width="1280"
     inkscape:window-height="700"
     id="namedview22"
     showgrid="false"
     inkscape:zoom="1"
     inkscape:cx="59.105515"
     inkscape:cy="10.773"
     inkscape:window-x="0"
     inkscape:window-y="23"
     inkscape:window-maximized="1"
     inkscape:current-layer="svg20" />
  <defs
     id="defs10" />
  <path
     fill="#8e75ff"
     fill-rule="evenodd"
     d="M 55.529005,0 H 18.137101 v 18.748042 h 18.398605 c 0.655466,0 1.187217,0.531751 1.187217,1.187216 V 38.079925 H 56.716222 V 1.1893872 A 1.1872168,1.1872168 0 0 0 55.529005,0 Z"
     clip-rule="evenodd"
     id="path12"
     style="stroke-width:2.17041" />
  <path
     fill="#8e75ff"
     fill-rule="evenodd"
     d="M 18.134931,0 V 18.748042 H 0.5936395 A 0.59469361,0.59469361 0 0 1 0.17691988,17.730117 Z m 20.599405,55.829576 a 0.59469361,0.59469361 0 0 1 -1.011413,-0.423231 v -17.32642 h 18.993299 l -17.981886,17.74748 z"
     clip-rule="evenodd"
     opacity="0.405"
     id="path14"
     style="stroke-width:2.17041" />
  <path
     fill="#8e75ff"
     d="M 18.134931,18.748042 H 37.1304 c 0.325562,0 0.592523,0.26479 0.592523,0.592523 v 18.73936 H 19.324318 A 1.1872168,1.1872168 0 0 1 18.137101,36.892708 V 18.748042 Z"
     opacity="0.405"
     id="path16"
     style="stroke-width:2.17041" />
</svg>
