<?xml version="1.0" encoding="UTF-8" standalone="no"?>
<svg
   xmlns:dc="http://purl.org/dc/elements/1.1/"
   xmlns:cc="http://creativecommons.org/ns#"
   xmlns:rdf="http://www.w3.org/1999/02/22-rdf-syntax-ns#"
   xmlns:svg="http://www.w3.org/2000/svg"
   xmlns="http://www.w3.org/2000/svg"
   xmlns:sodipodi="http://sodipodi.sourceforge.net/DTD/sodipodi-0.dtd"
   xmlns:inkscape="http://www.inkscape.org/namespaces/inkscape"
   viewBox="0 0 49.839447 56"
   version="1.1"
   id="svg26"
   sodipodi:docname="techs-Graphql.svg"
   width="49.839447"
   height="56"
   inkscape:version="1.0.2 (e86c8708, 2021-01-15)">
  <metadata
     id="metadata32">
    <rdf:RDF>
      <cc:Work
         rdf:about="">
        <dc:format>image/svg+xml</dc:format>
        <dc:type
           rdf:resource="http://purl.org/dc/dcmitype/StillImage" />
      </cc:Work>
    </rdf:RDF>
  </metadata>
  <defs
     id="defs30" />
  <sodipodi:namedview
     pagecolor="#ffffff"
     bordercolor="#666666"
     borderopacity="1"
     objecttolerance="10"
     gridtolerance="10"
     guidetolerance="10"
     inkscape:pageopacity="0"
     inkscape:pageshadow="2"
     inkscape:window-width="1280"
     inkscape:window-height="700"
     id="namedview28"
     showgrid="false"
     inkscape:zoom="1"
     inkscape:cx="174.26007"
     inkscape:cy="133.54319"
     inkscape:window-x="0"
     inkscape:window-y="23"
     inkscape:window-maximized="1"
     inkscape:current-layer="svg26" />
  <g
     fill="#e10098"
     id="g24"
     transform="matrix(0.14300306,0,0,0.14300306,-3.6808892,-0.60061285)">
    <path
       d="m 57.468,302.66 -14.376,-8.3 160.15,-277.38 14.376,8.3 z"
       id="path10" />
    <path
       d="m 39.8,272.2 h 320.3 v 16.6 H 39.8 Z"
       id="path12" />
    <path
       d="m 206.348,374.026 -160.21,-92.5 8.3,-14.376 160.21,92.5 z m 139.174,-241.079 -160.21,-92.5 8.3,-14.376 160.21,92.5 z"
       id="path14" />
    <path
       d="m 54.482,132.883 -8.3,-14.375 160.21,-92.5 8.3,14.376 z"
       id="path16" />
    <path
       d="m 342.568,302.663 -160.15,-277.38 14.376,-8.3 160.15,277.38 z M 52.5,107.5 h 16.6 v 185 H 52.5 Z m 278.4,0 h 16.6 v 185 h -16.6 z"
       id="path18" />
    <path
       d="m 203.522,367 -7.25,-12.558 139.34,-80.45 7.25,12.557 z"
       id="path20" />
    <path
       d="m 369.5,297.9 c -9.6,16.7 -31,22.4 -47.7,12.8 -16.7,-9.6 -22.4,-31 -12.8,-47.7 9.6,-16.7 31,-22.4 47.7,-12.8 16.8,9.7 22.5,31 12.8,47.7 M 90.9,137 c -9.6,16.7 -31,22.4 -47.7,12.8 -16.7,-9.6 -22.4,-31 -12.8,-47.7 9.6,-16.7 31,-22.4 47.7,-12.8 16.7,9.7 22.4,31 12.8,47.7 M 30.5,297.9 c -9.6,-16.7 -3.9,-38 12.8,-47.7 16.7,-9.6 38,-3.9 47.7,12.8 9.6,16.7 3.9,38 -12.8,47.7 -16.8,9.6 -38.1,3.9 -47.7,-12.8 M 309.1,137 c -9.6,-16.7 -3.9,-38 12.8,-47.7 16.7,-9.6 38,-3.9 47.7,12.8 9.6,16.7 3.9,38 -12.8,47.7 -16.7,9.6 -38.1,3.9 -47.7,-12.8 M 200,395.8 c -19.3,0 -34.9,-15.6 -34.9,-34.9 0,-19.3 15.6,-34.9 34.9,-34.9 19.3,0 34.9,15.6 34.9,34.9 0,19.2 -15.6,34.9 -34.9,34.9 M 200,74 c -19.3,0 -34.9,-15.6 -34.9,-34.9 0,-19.3 15.6,-34.9 34.9,-34.9 19.3,0 34.9,15.6 34.9,34.9 0,19.3 -15.6,34.9 -34.9,34.9"
       id="path22" />
  </g>
</svg>
