<?xml version="1.0" encoding="UTF-8" standalone="no"?>
<svg
   xmlns:dc="http://purl.org/dc/elements/1.1/"
   xmlns:cc="http://creativecommons.org/ns#"
   xmlns:rdf="http://www.w3.org/1999/02/22-rdf-syntax-ns#"
   xmlns:svg="http://www.w3.org/2000/svg"
   xmlns="http://www.w3.org/2000/svg"
   xmlns:sodipodi="http://sodipodi.sourceforge.net/DTD/sodipodi-0.dtd"
   xmlns:inkscape="http://www.inkscape.org/namespaces/inkscape"
   id="logo-jamstack"
   viewBox="0 0 294.4516 56"
   version="1.1"
   sodipodi:docname="techs-Jamstack.svg"
   width="294.4516"
   height="56"
   style="fill:none"
   inkscape:version="0.92.5 (2060ec1f9f, 2020-04-08)">
  <metadata
     id="metadata37">
    <rdf:RDF>
      <cc:Work
         rdf:about="">
        <dc:format>image/svg+xml</dc:format>
        <dc:type
           rdf:resource="http://purl.org/dc/dcmitype/StillImage" />
      </cc:Work>
    </rdf:RDF>
  </metadata>
  <defs
     id="defs35" />
  <sodipodi:namedview
     pagecolor="#ffffff"
     bordercolor="#666666"
     borderopacity="1"
     objecttolerance="10"
     gridtolerance="10"
     guidetolerance="10"
     inkscape:pageopacity="0"
     inkscape:pageshadow="2"
     inkscape:window-width="1280"
     inkscape:window-height="739"
     id="namedview33"
     showgrid="false"
     inkscape:zoom="1.9815951"
     inkscape:cx="81.5"
     inkscape:cy="15.5"
     inkscape:window-x="0"
     inkscape:window-y="32"
     inkscape:window-maximized="1"
     inkscape:current-layer="logo-jamstack" />
  <path
     d="M 91.4648,31.052361 V 10.83871 h -8.557342 v 22.339122 c 0,1.853962 -0.135845,4.250762 -2.580697,4.250762 -2.173342,0 -2.490374,-2.215794 -2.580877,-3.88911 h -9.100723 c 0,4.883922 1.992155,8.863355 6.746374,10.581651 1.403433,0.542659 2.988233,0.813988 4.527691,0.813988 3.576774,0 7.199071,-1.582633 9.462916,-4.386426 C 91.4648,37.92591 91.4648,34.263148 91.4648,31.052361 Z"
     id="path2"
     inkscape:connector-curvature="0"
     style="fill:#ffffff;stroke-width:1.80645156" />
  <path
     d="M 122.77819,44.302142 V 19.204568 h -7.51592 v 2.667948 h -0.0905 c -1.4943,-2.487123 -4.57303,-3.527097 -7.33492,-3.527097 -7.56126,0 -12.632334,6.059562 -12.632334,13.385265 0,7.461548 4.889884,13.430606 12.632334,13.430606 2.71654,0 5.97647,-0.994813 7.33492,-3.572438 h 0.0905 v 2.71329 z m -7.51592,-12.571458 c 0,3.617781 -2.62604,6.421393 -6.2935,6.421393 -3.53161,0 -6.24833,-2.848954 -6.24833,-6.33089 0,-3.572439 2.53553,-6.466555 6.20299,-6.466555 3.66746,0 6.33884,2.71311 6.33884,6.376052 z"
     id="path4"
     inkscape:connector-curvature="0"
     style="fill:#ffffff;stroke-width:1.80645156" />
  <path
     d="M 166.83755,44.302142 V 30.600206 c 0,-3.843767 0.13584,-6.828387 -2.71654,-9.722503 -1.76581,-1.8088 -4.12034,-2.532284 -6.61053,-2.532284 -3.39577,0 -6.15765,1.627974 -7.9688,4.476749 -1.53946,-2.848775 -3.98431,-4.476749 -7.24442,-4.476749 -2.85238,0 -5.47842,0.949652 -6.92738,3.527097 h -0.0905 v -2.667948 h -7.01806 v 25.097574 h 7.5161 V 30.962039 c 0,-2.939458 0.76973,-5.562245 4.256,-5.562245 3.16942,0 3.75814,2.667948 3.75814,5.245574 v 13.656774 h 7.51592 V 30.600206 c 0,-2.848954 0.81507,-5.200412 4.1655,-5.200412 3.48627,0 3.84865,2.803612 3.84865,5.562245 v 13.340103 z"
     id="path6"
     inkscape:connector-curvature="0"
     style="fill:#ffffff;stroke-width:1.80645156" />
  <path
     d="m 190.95819,36.614606 c 0,-8.863354 -12.63161,-6.647561 -12.63161,-10.581651 0,-1.130658 1.13192,-1.673316 2.128,-1.673316 1.31239,0 2.30955,0.497496 2.35471,1.899303 h 7.37936 c -0.49678,-5.336077 -4.6173,-7.913523 -9.64339,-7.913523 -4.84472,0 -9.7346,3.029781 -9.7346,8.275355 0,3.527278 2.98823,5.471742 5.97646,6.557058 1.08676,0.406994 2.17334,0.768645 3.26011,1.130478 1.35845,0.542658 3.39612,1.085316 3.39612,2.894116 0,1.311484 -1.49393,1.944464 -2.62658,1.944464 -1.49411,0 -2.62603,-0.768645 -2.85238,-2.306296 h -7.47076 c 0.58872,5.517083 4.98056,8.320696 10.23282,8.320696 5.11587,0 10.23174,-2.894116 10.23174,-8.546684 z"
     id="path8"
     inkscape:connector-curvature="0"
     style="fill:#ffffff;stroke-width:1.80645156" />
  <path
     d="M 207.34994,24.902297 V 19.204568 H 203.728 V 10.83871 h -7.51665 v 8.365858 h -3.71225 v 5.697729 h 3.71225 V 44.302142 H 203.728 V 24.902297 Z"
     id="path10"
     inkscape:connector-curvature="0"
     style="fill:#ffffff;stroke-width:1.80645156" />
  <path
     d="M 236.32542,44.302142 V 19.204568 h -7.51665 v 2.667948 h -0.0903 c -1.49393,-2.487123 -4.57393,-3.527097 -7.33419,-3.527097 -7.56181,0 -12.63252,6.059562 -12.63252,13.385265 0,7.461548 4.89007,13.430606 12.63252,13.430606 2.71509,0 5.97574,-0.994813 7.33419,-3.572438 h 0.0903 v 2.71329 z m -7.51665,-12.571458 c 0,3.617781 -2.62658,6.421393 -6.29367,6.421393 -3.53162,0 -6.24852,-2.848954 -6.24852,-6.33089 0,-3.572439 2.53626,-6.466555 6.20336,-6.466555 3.66709,0 6.33883,2.71311 6.33883,6.376052 z"
     id="path12"
     inkscape:connector-curvature="0"
     style="fill:#ffffff;stroke-width:1.80645156" />
  <path
     d="m 267.20852,34.760464 h -7.65213 c -1.13084,2.170633 -2.94271,3.346452 -5.43381,3.346452 -3.6671,0 -5.97574,-2.848955 -5.97574,-6.376232 0,-3.391613 2.17316,-6.376052 5.7951,-6.376052 2.58141,0 4.52877,1.175639 5.61445,3.527097 h 7.60696 c -1.31329,-6.376052 -6.88258,-10.53631 -13.31174,-10.53631 -7.46967,0 -13.26658,5.923897 -13.26658,13.340104 0,7.506709 5.93239,13.430606 13.44723,13.430606 6.33884,0 11.72748,-4.2056 13.17626,-10.355665 z"
     id="path14"
     inkscape:connector-curvature="0"
     style="fill:#ffffff;stroke-width:1.80645156" />
  <path
     d="m 294.45161,19.204568 h -8.92026 l -6.9729,9.089342 h -0.0903 v -17.4552 h -7.51484 v 33.463432 h 7.51484 V 32.228181 h 0.0903 l 7.1102,12.073961 h 8.512 l -9.19123,-14.063768 z"
     id="path16"
     inkscape:connector-curvature="0"
     style="fill:#ffffff;stroke-width:1.80645156" />
  <path
     d="M 28,0 C 12.517192,0 0,12.517192 0,28 0,43.482735 12.517192,56 28,56 43.482735,56 56,43.482735 56,28 V 0 Z"
     id="path18"
     inkscape:connector-curvature="0"
     style="fill:#f0047f;stroke-width:1.80645156" />
  <path
     d="M 5.4193548,28.903226 C 5.7496826,40.712181 15.287747,50.250245 27.096774,50.580645 V 28.903226 Z"
     id="path20"
     inkscape:connector-curvature="0"
     style="fill:#ffffff;stroke-width:1.80645156" />
  <path
     d="M 27.096774,50.580645 V 28.903226 H 5.4193548 c 0.0058,0.2072 0.014416,0.413677 0.02585,0.619251 0.6283742,11.315794 9.7164522,20.403871 21.0323182,21.032336 0.205574,0.01138 0.412051,0.02005 0.619251,0.02583 z M 6.0655045,29.522477 c 0.6268387,10.973652 9.4384205,19.785162 20.4120185,20.412 v -20.412 z"
     id="path22"
     inkscape:connector-curvature="0"
     style="clip-rule:evenodd;fill:#f0047f;fill-rule:evenodd;stroke-width:1.80645156" />
  <path
     d="m 27.096774,50.580645 c 10.824981,-0.3304 19.568207,-9.868464 19.870968,-21.677419 H 27.096774 Z"
     id="path24"
     inkscape:connector-curvature="0"
     style="fill:#ffffff;stroke-width:1.80645156" />
  <path
     d="M 46.967742,28.903226 H 27.096774 v 21.677419 c 0.189858,-0.0058 0.379174,-0.01445 0.567768,-0.02583 10.372826,-0.628467 18.703458,-9.716544 19.279535,-21.032338 0.01048,-0.205574 0.01843,-0.412051 0.02367,-0.619251 z m -0.592336,0.619251 H 27.664542 v 20.412 c 10.059045,-0.626838 18.136232,-9.438348 18.710864,-20.412 z"
     id="path26"
     inkscape:connector-curvature="0"
     style="clip-rule:evenodd;fill:#f0047f;fill-rule:evenodd;stroke-width:1.80645156" />
  <path
     d="M 46.967742,9.032258 H 27.096774 v 19.870968 h 19.870968 z"
     id="path28"
     inkscape:connector-curvature="0"
     style="fill:#ffffff;stroke-width:1.80645156" />
  <path
     d="M 46.399974,9.599954 H 27.664542 V 28.335458 H 46.399974 Z M 46.967742,9.032258 V 28.903226 H 27.096774 V 9.032258 Z"
     id="path30"
     inkscape:connector-curvature="0"
     style="clip-rule:evenodd;fill:#f0047f;fill-rule:evenodd;stroke-width:1.80645156" />
</svg>
