<?xml version="1.0" encoding="UTF-8" standalone="no"?>
<svg
   xmlns:dc="http://purl.org/dc/elements/1.1/"
   xmlns:cc="http://creativecommons.org/ns#"
   xmlns:rdf="http://www.w3.org/1999/02/22-rdf-syntax-ns#"
   xmlns:svg="http://www.w3.org/2000/svg"
   xmlns="http://www.w3.org/2000/svg"
   xmlns:sodipodi="http://sodipodi.sourceforge.net/DTD/sodipodi-0.dtd"
   xmlns:inkscape="http://www.inkscape.org/namespaces/inkscape"
   viewBox="0 0 56 56"
   focusable="false"
   version="1.1"
   id="svg16"
   sodipodi:docname="techs-Gatsby.svg"
   width="56"
   height="56"
   inkscape:version="1.0.2 (e86c8708, 2021-01-15)">
  <metadata
     id="metadata22">
    <rdf:RDF>
      <cc:Work
         rdf:about="">
        <dc:format>image/svg+xml</dc:format>
        <dc:type
           rdf:resource="http://purl.org/dc/dcmitype/StillImage" />
      </cc:Work>
    </rdf:RDF>
  </metadata>
  <defs
     id="defs20" />
  <sodipodi:namedview
     pagecolor="#ffffff"
     bordercolor="#666666"
     borderopacity="1"
     objecttolerance="10"
     gridtolerance="10"
     guidetolerance="10"
     inkscape:pageopacity="0"
     inkscape:pageshadow="2"
     inkscape:window-width="1280"
     inkscape:window-height="700"
     id="namedview18"
     showgrid="false"
     inkscape:zoom="1"
     inkscape:cx="14"
     inkscape:cy="14"
     inkscape:window-x="0"
     inkscape:window-y="23"
     inkscape:window-maximized="1"
     inkscape:current-layer="svg16" />
  <title
     id="title10">
    Gatsby
  </title>
  <g
     id="g26"
     transform="scale(2)">
    <circle
       cx="14"
       cy="14"
       r="14"
       fill="#663399"
       id="circle12" />
    <path
       fill="#ffffff"
       d="M 6.2,21.8 C 4.1,19.7 3,16.9 3,14.2 L 13.9,25 C 11.1,24.9 8.3,23.9 6.2,21.8 Z M 16.4,24.7 3.3,11.6 C 4.4,6.7 8.8,3 14,3 c 3.7,0 6.9,1.8 8.9,4.5 L 21.4,8.8 C 19.7,6.5 17,5 14,5 10.1,5 6.8,7.5 5.5,11 L 17,22.5 c 2.9,-1 5.1,-3.5 5.8,-6.5 H 18 v -2 h 7 c 0,5.2 -3.7,9.6 -8.6,10.7 z"
       id="path14" />
  </g>
</svg>
