<?xml version="1.0" encoding="UTF-8" standalone="no"?>
<svg
   xmlns:dc="http://purl.org/dc/elements/1.1/"
   xmlns:cc="http://creativecommons.org/ns#"
   xmlns:rdf="http://www.w3.org/1999/02/22-rdf-syntax-ns#"
   xmlns:svg="http://www.w3.org/2000/svg"
   xmlns="http://www.w3.org/2000/svg"
   xmlns:sodipodi="http://sodipodi.sourceforge.net/DTD/sodipodi-0.dtd"
   xmlns:inkscape="http://www.inkscape.org/namespaces/inkscape"
   height="56.000004"
   width="55.938496"
   viewBox="-21.98895 -9.713025 8.8835412 4.0794707"
   version="1.1"
   id="svg21"
   sodipodi:docname="techs-Netlify.svg"
   inkscape:version="1.0.2 (e86c8708, 2021-01-15)">
  <metadata
     id="metadata27">
    <rdf:RDF>
      <cc:Work
         rdf:about="">
        <dc:format>image/svg+xml</dc:format>
        <dc:type
           rdf:resource="http://purl.org/dc/dcmitype/StillImage" />
      </cc:Work>
    </rdf:RDF>
  </metadata>
  <defs
     id="defs25" />
  <sodipodi:namedview
     pagecolor="#ffffff"
     bordercolor="#666666"
     borderopacity="1"
     objecttolerance="10"
     gridtolerance="10"
     guidetolerance="10"
     inkscape:pageopacity="0"
     inkscape:pageshadow="2"
     inkscape:window-width="1280"
     inkscape:window-height="700"
     id="namedview23"
     showgrid="false"
     inkscape:zoom="1"
     inkscape:cx="469.32056"
     inkscape:cy="141.00078"
     inkscape:window-x="0"
     inkscape:window-y="23"
     inkscape:window-maximized="1"
     inkscape:current-layer="svg21" />
  <radialGradient
     gradientUnits="userSpaceOnUse"
     fy="0.82849997"
     fx="19.9925"
     cx="19.9925"
     gradientTransform="matrix(0.23181248,0,0,0.23206762,-22.181692,-12.312204)"
     r="38.364201"
     cy="0.82849997"
     id="a">
    <stop
       stop-color="#20c6b7"
       offset="0"
       id="stop10" />
    <stop
       stop-color="#4d9abf"
       offset="1"
       id="stop12" />
  </radialGradient>
  <path
     d="m -15.550758,-9.0337321 -0.0032,-0.0014 c -0.0019,-6.96e-4 -0.0037,-0.0014 -0.0053,-0.003 a 0.02551341,0.02551341 0 0 1 -0.0065,-0.02157 l 0.179289,-1.0961489 0.840783,0.8410149 -0.874414,0.372032 a 0.01925102,0.01925102 0 0 1 -0.0077,0.0014 h -0.0035 a 0.02407538,0.02407538 0 0 1 -0.0046,-0.0039 0.39800912,0.39800912 0 0 0 -0.11481,-0.08837 z m 1.219541,-0.0668 0.898999,0.898999 c 0.186712,0.186944 0.280184,0.280184 0.314279,0.388268 0.0051,0.016 0.0093,0.03201 0.01253,0.04847 l -2.148461,-0.9099 a 0.16885235,0.16885235 0 0 0 -0.0035,-0.0014 c -0.0086,-0.0035 -0.01856,-0.0074 -0.01856,-0.01624 0,-0.0088 0.01021,-0.01299 0.01879,-0.01647 l 0.0028,-0.0012 z m 1.189156,1.624276 c -0.04639,0.08721 -0.136844,0.177666 -0.289925,0.330978 l -1.013578,1.013346 -1.310925,-0.272993 -0.007,-0.0014 c -0.0116,-0.0019 -0.02389,-0.0039 -0.02389,-0.01438 a 0.39568972,0.39568972 0 0 0 -0.151921,-0.276705 c -0.0053,-0.0053 -0.0039,-0.01368 -0.0023,-0.02134 0,-0.0012 0,-0.0023 4.64e-4,-0.0032 l 0.246552,-1.513641 9.28e-4,-0.0051 c 0.0014,-0.0116 0.0035,-0.02505 0.01392,-0.02505 a 0.40125628,0.40125628 0 0 0 0.269051,-0.15424 c 0.0021,-0.0023 0.0035,-0.0049 0.0063,-0.0063 0.0074,-0.0035 0.01624,0 0.02389,0.0032 l 2.238221,0.94678 z m -1.536603,1.577424 -1.666721,1.666721 0.285287,-1.753467 4.63e-4,-0.0023 c 2.32e-4,-0.0023 6.96e-4,-0.0046 0.0014,-0.0067 0.0023,-0.0056 0.0084,-0.0079 0.01415,-0.01021 l 0.0028,-0.0012 a 0.42908909,0.42908909 0 0 0 0.161198,-0.119913 c 0.0056,-0.0065 0.01229,-0.01276 0.02088,-0.01392 a 0.0208746,0.0208746 0 0 1 0.0067,0 l 1.173617,0.241218 z m -2.019502,2.019502 -0.187871,0.187871 -2.077023,-3.001768 a 0.09834258,0.09834258 0 0 0 -0.0023,-0.0032 c -0.0032,-0.0044 -0.0067,-0.0088 -0.006,-0.01392 0,-0.0037 0.0026,-0.007 0.0051,-0.0097 l 0.0023,-0.003 c 0.0063,-0.0093 0.0116,-0.01855 0.0174,-0.02853 l 0.0046,-0.0081 6.96e-4,-6.96e-4 c 0.0032,-0.0056 0.0063,-0.0109 0.01183,-0.01392 0.0049,-0.0023 0.0116,-0.0014 0.01693,-2.32e-4 l 2.301077,0.47455 a 0.03803817,0.03803817 0 0 1 0.01763,0.0077 c 0.003,0.003 0.0037,0.0063 0.0044,0.01 a 0.40751866,0.40751866 0 0 0 0.238435,0.27253 c 0.0065,0.0032 0.0037,0.01044 6.96e-4,0.01809 a 0.05520173,0.05520173 0 0 0 -0.0035,0.01044 c -0.02899,0.176275 -0.277632,1.692699 -0.344431,2.102073 z m -0.392442,0.392211 c -0.138468,0.137076 -0.220111,0.209673 -0.312423,0.238898 a 0.46388009,0.46388009 0 0 1 -0.27972,0 c -0.108084,-0.03433 -0.201556,-0.127567 -0.388268,-0.314511 l -2.085837,-2.085837 0.544828,-0.844957 c 0.0026,-0.0042 0.0051,-0.0079 0.0093,-0.0109 0.0058,-0.0042 0.01415,-0.0023 0.02111,0 a 0.56454207,0.56454207 0 0 0 0.379918,-0.01925 c 0.0063,-0.0023 0.01252,-0.0039 0.0174,4.63e-4 a 0.04406861,0.04406861 0 0 1 0.0065,0.0074 l 2.087229,3.028906 z m -3.26734,-2.362542 -0.478492,-0.478492 0.944924,-0.403112 a 0.01948296,0.01948296 0 0 1 0.0077,-0.0016 c 0.0079,0 0.01253,0.0079 0.0167,0.01508 a 0.67494554,0.67494554 0 0 0 0.03015,0.04268 l 0.003,0.0037 c 0.0028,0.0039 9.28e-4,0.0079 -0.0019,0.0116 l -0.521865,0.810166 z m -0.690253,-0.690253 -0.605364,-0.605364 c -0.102981,-0.102981 -0.177666,-0.177666 -0.22962,-0.241913 l 1.840676,0.381773 a 0.19482964,0.19482964 0 0 0 0.007,0.0012 c 0.01137,0.0019 0.02389,0.0039 0.02389,0.01461 0,0.0116 -0.01368,0.01693 -0.02528,0.02134 l -0.0053,0.0023 z m -0.940749,-1.158541 a 0.46388009,0.46388009 0 0 1 0.02088,-0.11481 c 0.03433,-0.108084 0.127567,-0.201324 0.31451,-0.388268 l 0.77468,-0.77468 a 504.59137,504.59137 0 0 0 1.072955,1.550984 c 0.0063,0.0083 0.01322,0.01763 0.006,0.02459 -0.03386,0.03734 -0.06773,0.07816 -0.09162,0.122465 a 0.03711041,0.03711041 0 0 1 -0.0116,0.01438 c -0.003,0.0019 -0.0063,0.0012 -0.0097,4.64e-4 h -4.64e-4 l -2.075631,-0.435352 z m 1.317419,-1.485112 1.041179,-1.0416429 c 0.09811,0.04291 0.454603,0.193438 0.773057,0.3279639 0.241217,0.102053 0.461096,0.194829 0.530215,0.224981 0.007,0.0028 0.01322,0.0056 0.01623,0.01253 0.0019,0.0042 9.28e-4,0.0095 0,0.01392 a 0.46457591,0.46457591 0 0 0 0.121305,0.423986 c 0.007,0.007 0,0.01693 -0.006,0.02551 l -0.0032,0.0049 -1.057646,1.638193 c -0.0028,0.0046 -0.0053,0.0086 -0.01,0.0116 -0.0056,0.0035 -0.01345,0.0019 -0.01995,2.32e-4 a 0.52743167,0.52743167 0 0 0 -0.125943,-0.01716 c -0.03804,0 -0.07932,0.007 -0.121073,0.01461 h -2.32e-4 c -0.0046,6.96e-4 -0.0088,0.0016 -0.01252,-0.0012 a 0.04870741,0.04870741 0 0 1 -0.01044,-0.01183 l -1.115167,-1.626596 z m 1.252013,-1.2520119 1.348499,-1.3485 c 0.186712,-0.186712 0.280184,-0.280183 0.388268,-0.314279 a 0.46388009,0.46388009 0 0 1 0.27972,0 c 0.108084,0.0341 0.201556,0.127567 0.388267,0.314279 l 0.292245,0.292245 -0.959072,1.485344 a 0.03595071,0.03595071 0 0 1 -0.0095,0.01113 c -0.0058,0.0039 -0.01392,0.0023 -0.02087,0 a 0.48637828,0.48637828 0 0 0 -0.445325,0.08582 c -0.0063,0.0065 -0.01554,0.0028 -0.02343,-6.96e-4 -0.125248,-0.05451 -1.099396,-0.4661999 -1.238792,-0.5253439 z m 2.900642,-0.852612 0.885547,0.885547 -0.213385,1.3215949 v 0.0035 a 0.03131191,0.03131191 0 0 1 -0.0019,0.0088 c -0.0023,0.0046 -0.007,0.0056 -0.0116,0.007 a 0.42445029,0.42445029 0 0 0 -0.127103,0.06332 0.03571877,0.03571877 0 0 0 -0.0046,0.0039 c -0.0026,0.0028 -0.0051,0.0053 -0.0093,0.0058 a 0.02644117,0.02644117 0 0 1 -0.01,-0.0016 l -1.349427,-0.573356 -0.0026,-0.0012 c -0.0086,-0.0035 -0.01879,-0.0077 -0.01879,-0.01647 a 0.50980422,0.50980422 0 0 0 -0.0719,-0.212225 c -0.0065,-0.01067 -0.01368,-0.0218 -0.0081,-0.0327 z m -0.911988,1.9960759 1.265001,0.535782 c 0.007,0.0032 0.01461,0.0063 0.01763,0.01345 a 0.02458565,0.02458565 0 0 1 0,0.01322 c -0.0037,0.01855 -0.007,0.03966 -0.007,0.061 v 0.03549 c 0,0.0088 -0.009,0.01253 -0.01739,0.016 l -0.0026,9.27e-4 c -0.200396,0.08559 -2.813432,1.199826 -2.817375,1.199826 -0.0039,0 -0.0081,0 -0.01206,-0.0039 -0.007,-0.007 0,-0.0167 0.0063,-0.02551 a 0.17627444,0.17627444 0 0 0 0.0032,-0.0046 l 1.039555,-1.609664 0.0019,-0.0028 c 0.006,-0.0097 0.01299,-0.02064 0.02412,-0.02064 l 0.01044,0.0016 c 0.02366,0.0032 0.04453,0.0063 0.06564,0.0063 0.157719,0 0.303842,-0.07677 0.391979,-0.20805 a 0.03711041,0.03711041 0 0 1 0.0079,-0.0093 c 0.0063,-0.0046 0.01554,-0.0023 0.02273,9.28e-4 z m -1.448698,2.130369 2.848224,-1.21467 c 0,0 0.0042,0 0.0081,0.0039 0.01554,0.01554 0.02876,0.02598 0.04152,0.03572 l 0.0063,0.0039 c 0.0058,0.0032 0.0116,0.007 0.01206,0.01299 0,0.0023 0,0.0037 -4.64e-4,0.0058 l -0.244001,1.498797 -9.28e-4,0.006 c -0.0016,0.0116 -0.0032,0.02482 -0.01415,0.02482 a 0.40102434,0.40102434 0 0 0 -0.318454,0.196453 l -0.0012,0.0019 c -0.0032,0.0053 -0.0063,0.01044 -0.0116,0.01322 -0.0049,0.0023 -0.01113,0.0014 -0.01624,2.32e-4 l -2.271388,-0.468519 c -0.0023,-4.64e-4 -0.03525,-0.120377 -0.03781,-0.120609 z"
     fill-rule="nonzero"
     fill="url(#a)"
     id="path17"
     style="fill:url(#a);stroke-width:0.23194" />
</svg>
