<?xml version="1.0" encoding="UTF-8" standalone="no"?>
<svg
   xmlns:dc="http://purl.org/dc/elements/1.1/"
   xmlns:cc="http://creativecommons.org/ns#"
   xmlns:rdf="http://www.w3.org/1999/02/22-rdf-syntax-ns#"
   xmlns:svg="http://www.w3.org/2000/svg"
   xmlns="http://www.w3.org/2000/svg"
   xmlns:sodipodi="http://sodipodi.sourceforge.net/DTD/sodipodi-0.dtd"
   xmlns:inkscape="http://www.inkscape.org/namespaces/inkscape"
   width="94.038002"
   height="56"
   viewBox="0 0 94.038002 56"
   version="1.1"
   id="svg360"
   sodipodi:docname="techs-Nextjs.svg"
   style="fill:none"
   inkscape:version="0.92.5 (2060ec1f9f, 2020-04-08)">
  <metadata
     id="metadata366">
    <rdf:RDF>
      <cc:Work
         rdf:about="">
        <dc:format>image/svg+xml</dc:format>
        <dc:type
           rdf:resource="http://purl.org/dc/dcmitype/StillImage" />
      </cc:Work>
    </rdf:RDF>
  </metadata>
  <defs
     id="defs364" />
  <sodipodi:namedview
     pagecolor="#ffffff"
     bordercolor="#666666"
     borderopacity="1"
     objecttolerance="10"
     gridtolerance="10"
     guidetolerance="10"
     inkscape:pageopacity="0"
     inkscape:pageshadow="2"
     inkscape:window-width="1280"
     inkscape:window-height="739"
     id="namedview362"
     showgrid="false"
     inkscape:zoom="1.964"
     inkscape:cx="36.41626"
     inkscape:cy="11.844582"
     inkscape:window-x="0"
     inkscape:window-y="32"
     inkscape:window-maximized="1"
     inkscape:current-layer="svg360" />
  <path
     d="m 41.5142,14.60558 h 1.88452 L 51.7496,26.10395 60.28512,14.60558 71.89504,0 52.82116,27.31238 62.65,40.75159 H 60.69168 L 51.7496,28.52086 42.77056,40.75159 h -1.92147 l 9.90282,-13.43921 z m -19.32526,0 h 17.73638 v 1.39155 H 23.81479 v 10.47301 h 15.14979 v 1.39154 H 23.81479 v 11.49837 h 16.29527 v 1.39154 H 22.18894 Z m 41.1633,0 v 1.39155 h 9.27472 v 24.75446 h 1.62568 V 15.99713 h 9.31168 v -1.39155 z"
     id="path354"
     inkscape:connector-curvature="0"
     style="clip-rule:evenodd;fill:#000000;fill-rule:evenodd;stroke-width:0.056" />
  <path
     d="M 0,14.60558 H 2.0323 L 30.05644,56 18.47541,40.75159 1.69974,16.583 1.62584,40.75159 H 0 Z"
     id="path356"
     inkscape:connector-curvature="0"
     style="fill:#000000;stroke-width:0.056" />
  <path
     d="m 91.83888,39.0105 c -1.26504,0 -2.11568,-0.6449 -2.1784,-1.65329 H 90.538 c 0.075,0.53547 0.60536,0.8755 1.36808,0.8755 0.71176,0 1.23424,-0.36349 1.23424,-0.8638 0,-0.42991 -0.33264,-0.68785 -1.08752,-0.86374 l -0.73584,-0.1759 c -1.03208,-0.23839 -1.50248,-0.73085 -1.50248,-1.55949 0,-1.00447 0.83048,-1.67283 2.07592,-1.67283 1.15864,0 2.0048,0.66836 2.05632,1.61812 h -0.86184 c -0.0834,-0.51979 -0.54208,-0.8442 -1.20624,-0.8442 -0.7,0 -1.16648,0.33219 -1.16648,0.84028 0,0.40259 0.30072,0.63319 1.04384,0.80517 l 0.62888,0.15243 c 1.1704,0.2697 1.65312,0.7387 1.65312,1.58682 0,1.07873 -0.84672,1.75493 -2.19912,1.75493 z M 84.99792,37.408 c 0,0.9693 0.70784,1.6025 1.73992,1.6025 1.09928,0 1.764,-0.65274 1.764,-1.78618 v -3.99056 h -0.88592 v 3.98664 c 0,0.62927 -0.32032,0.96538 -0.88592,0.96538 -0.50624,0 -0.85008,-0.31264 -0.86184,-0.77778 z m -1.59768,1.53216 c 0.336,0 0.58128,-0.25407 0.58128,-0.5824 0,-0.32827 -0.24528,-0.58234 -0.58128,-0.58234 -0.33208,0 -0.58128,0.25407 -0.58128,0.58234 0,0.32833 0.2492,0.5824 0.58128,0.5824 z"
     id="path358"
     inkscape:connector-curvature="0"
     style="clip-rule:evenodd;fill:#000000;fill-rule:evenodd;stroke-width:0.056" />
</svg>
